<?xml version="1.0" standalone="yes"?>
<svg xmlns="http://www.w3.org/2000/svg" width="512" height="512">
<path style="fill:#ffffff; stroke:none;" d="M159 40C162.312 51.2583 170.704 61.8838 176.576 72L211.576 132C216.031 139.676 220.492 147.348 224.989 155C226.638 157.806 228.161 161.98 231.329 163.397C234.351 164.748 238.769 164 242 164L264 164L341 164C336.77 152.447 328.597 141.636 322.424 131C310.996 111.309 299.541 91.6319 288.011 72C283.517 64.348 279.131 56.6325 274.603 49C272.854 46.0512 271.287 41.9898 267.895 40.6034C264.719 39.3055 260.361 40 257 40L235 40L159 40M292 40C295.474 51.8105 304.507 63.4347 310.799 74C322.448 93.5587 333.552 113.441 345.201 133C349.543 140.291 353.712 147.684 358.011 155C359.616 157.732 361.333 161.993 364.379 163.397C367.11 164.655 371.074 164 374 164L396 164L472 164C472 149.37 471.133 134.03 466.656 120C463.147 109.003 458.39 98.518 451.795 89C446.417 81.2387 440.051 74.3071 432.999 68.0509C393.896 33.3586 340.399 40 292 40M40 164L208 164C204.04 154.539 197.95 145.883 192.85 137C181.132 116.588 168.937 96.447 157.281 76C152.884 68.2873 148.27 60.6992 143.85 53C142.006 49.7865 140.186 44.9287 136.79 43.0424C133.686 41.3179 129.199 42.8975 126 43.6543C115.838 46.0583 106.085 50.1805 97 55.2839C56.743 77.8976 40 119.746 40 164M40 184L40 322C40 358.31 39.1486 394.2 61.6404 425C79.8873 449.987 107.458 466.198 138 470.572C156.975 473.289 176.856 472 196 472L292 472C322.404 472 355.179 475.25 385 468.575C411.562 462.629 435.362 446.048 451.09 424C472.923 393.394 472 357.832 472 322L472 184L40 184z"/>
<path style="fill:#000000; stroke:none;" d="M223 246.479C213.722 247.933 206.885 254.731 205.326 264C204.19 270.748 205 278.171 205 285L205 326C205 337.64 202.87 351.714 205.927 363C208.784 373.544 218.232 379.425 229 377.787C237.642 376.472 246.515 369.536 254 365.281L306 335.719C314.668 330.791 325.46 326.166 326.814 315C328.353 302.314 318.768 296.06 309 290.694C289.183 279.81 269.636 268.359 250 257.15C242.156 252.673 232.59 244.976 223 246.479z"/>
</svg>
